<svg width="24" height="24" viewBox="0 0 24 24" fill="none" xmlns="http://www.w3.org/2000/svg">
<path fill-rule="evenodd" clip-rule="evenodd" d="M17 11C19.21 11 21 12.79 21 15V21H3V17C3 14.79 4.79002 13 6.99998 13H10.54C11.23 11.8 12.52 11 14 11H17ZM17 13H14C12.9 13 12 13.9 12 15V19H19V15C19 13.9 18.1 13 17 13ZM9.99998 15H6.99998C5.90002 15 5.00002 15.9 5.00002 17V19H9.99998V15ZM8.00002 6C9.654 6 11 7.34602 11 9C11 10.654 9.654 12 8.00002 12C6.34598 12 5.00002 10.654 5.00002 9C5.00002 7.34602 6.34598 6 8.00002 6ZM8.00002 7.875C7.38 7.875 6.87502 8.379 6.87502 9C6.87502 9.621 7.38 10.125 8.00002 10.125C8.62003 10.125 9.12502 9.621 9.12502 9C9.12502 8.379 8.61998 7.875 8.00002 7.875ZM15.5 3C17.43 3 19 4.56998 19 6.50002C19 8.43005 17.43 9.99998 15.5 9.99998C13.57 9.99998 12 8.43 12 6.50002C12 4.56998 13.57 3 15.5 3ZM15.5 5.00002C14.673 5.00002 14 5.673 14 6.50002C14 7.32698 14.673 8.00002 15.5 8.00002C16.327 8.00002 17 7.32698 17 6.50002C17 5.673 16.327 5.00002 15.5 5.00002Z" fill="#5D5D5D"/>
</svg>
