<svg width="30" height="30" viewBox="0 0 30 30" fill="none" xmlns="http://www.w3.org/2000/svg">
<path opacity="0.987" fill-rule="evenodd" clip-rule="evenodd" d="M13.5168 1.98939C14.8762 1.83752 15.6806 1.83752 17.1412 1.98939C19.7267 2.37207 22.1235 3.56718 23.985 5.40189C22.7271 6.5909 21.4857 7.79726 20.2612 9.02064C17.9162 7.03314 15.2987 6.57439 12.4087 7.64439C10.2887 8.61939 8.81247 10.1994 7.97997 12.3844C6.61954 11.3716 5.27684 10.3352 3.95247 9.27564C3.86043 9.2272 3.75531 9.20946 3.65247 9.22502C5.75622 5.16877 9.04372 2.75627 13.515 1.98752" fill="#F44336"/>
<path opacity="0.997" fill-rule="evenodd" clip-rule="evenodd" d="M3.64873 9.22503C3.75498 9.20878 3.85561 9.22566 3.95061 9.27566C5.27498 10.3352 6.61769 11.3716 7.97811 12.3844C7.76403 13.2358 7.62908 14.1051 7.57498 14.9813C7.62123 15.8288 7.75561 16.6607 7.97811 17.4769L3.74998 20.8425C1.90873 16.995 1.87498 13.1225 3.64873 9.22503Z" fill="#FFC107"/>
<path opacity="0.999" fill-rule="evenodd" clip-rule="evenodd" d="M23.7844 24.9188C22.4679 23.7577 21.0896 22.6686 19.6556 21.6563C21.0931 20.6413 21.9656 19.2488 22.2731 17.4788H15.2288V12.5869C19.2913 12.5531 23.3519 12.5875 27.4106 12.69C28.1806 16.8713 27.2913 20.6413 24.7425 24C24.4394 24.3222 24.1184 24.6288 23.7844 24.9188Z" fill="#448AFF"/>
<path opacity="0.993" fill-rule="evenodd" clip-rule="evenodd" d="M7.97813 17.4788C9.51562 21.3 12.3344 23.0838 16.4344 22.83C17.5853 22.6968 18.6888 22.2947 19.6556 21.6563C21.0906 22.6713 22.4669 23.7588 23.7844 24.9188C21.6968 26.7946 19.0352 27.9076 16.2337 28.0763C15.5973 28.1271 14.9577 28.1271 14.3212 28.0763C9.54875 27.5138 6.025 25.1025 3.75 20.8425L7.97813 17.4788Z" fill="#43A047"/>
</svg>
