<svg width="24" height="24" viewBox="0 0 24 24" fill="none" xmlns="http://www.w3.org/2000/svg">
<path fill-rule="evenodd" clip-rule="evenodd" d="M5.00005 9C5.00005 7.14348 5.73755 5.36301 7.0503 4.05025C8.36306 2.7375 10.1435 2 12.0001 2C13.8566 2 15.637 2.7375 16.9498 4.05025C18.2626 5.36301 19.0001 7.14348 19.0001 9V12.764L20.8221 16.408C20.9059 16.5757 20.9455 16.7621 20.9371 16.9494C20.9287 17.1368 20.8725 17.3188 20.7739 17.4783C20.6753 17.6379 20.5376 17.7695 20.3738 17.8608C20.21 17.9521 20.0256 18 19.8381 18H15.8741C15.6516 18.8582 15.1505 19.6183 14.4493 20.1609C13.7481 20.7035 12.8867 20.9979 12.0001 20.9979C11.1135 20.9979 10.252 20.7035 9.55079 20.1609C8.84962 19.6183 8.34849 18.8582 8.12605 18H4.16205C3.97453 18 3.79011 17.9521 3.62632 17.8608C3.46252 17.7695 3.32479 17.6379 3.2262 17.4783C3.1276 17.3188 3.07143 17.1368 3.063 16.9494C3.05457 16.7621 3.09418 16.5757 3.17805 16.408L5.00005 12.764V9ZM10.2681 18C10.4436 18.304 10.6961 18.5565 11.0001 18.732C11.3041 18.9075 11.649 18.9999 12.0001 18.9999C12.3511 18.9999 12.696 18.9075 13 18.732C13.304 18.5565 13.5565 18.304 13.7321 18H10.2681ZM12.0001 4C10.674 4 9.4022 4.52678 8.46452 5.46447C7.52684 6.40215 7.00005 7.67392 7.00005 9V12.764C7.00003 13.0743 6.92779 13.3804 6.78905 13.658L5.61905 16H18.3821L17.2121 13.658C17.073 13.3805 17.0004 13.0744 17.0001 12.764V9C17.0001 7.67392 16.4733 6.40215 15.5356 5.46447C14.5979 4.52678 13.3261 4 12.0001 4Z" fill="black"/>
</svg>
