<svg width="24" height="24" viewBox="0 0 24 24" fill="none" xmlns="http://www.w3.org/2000/svg">
<path fill-rule="evenodd" clip-rule="evenodd" d="M19.5 3.75H4.5C4.30109 3.75 4.11032 3.82902 3.96967 3.96967C3.82902 4.11032 3.75 4.30109 3.75 4.5V19.5C3.75 19.6989 3.82902 19.8897 3.96967 20.0303C4.11032 20.171 4.30109 20.25 4.5 20.25H19.5C19.6989 20.25 19.8897 20.171 20.0303 20.0303C20.171 19.8897 20.25 19.6989 20.25 19.5V4.5C20.25 4.30109 20.171 4.11032 20.0303 3.96967C19.8897 3.82902 19.6989 3.75 19.5 3.75ZM4.5 1.5C3.70435 1.5 2.94129 1.81607 2.37868 2.37868C1.81607 2.94129 1.5 3.70435 1.5 4.5V19.5C1.5 20.2956 1.81607 21.0587 2.37868 21.6213C2.94129 22.1839 3.70435 22.5 4.5 22.5H19.5C20.2956 22.5 21.0587 22.1839 21.6213 21.6213C22.1839 21.0587 22.5 20.2956 22.5 19.5V4.5C22.5 3.70435 22.1839 2.94129 21.6213 2.37868C21.0587 1.81607 20.2956 1.5 19.5 1.5H4.5ZM18 16.2855L14.25 12L10.536 16.245L8.25 13.5L6 16.2V18H18V16.2855ZM9.75 12C10.3467 12 10.919 11.7629 11.341 11.341C11.7629 10.919 12 10.3467 12 9.75C12 9.15326 11.7629 8.58097 11.341 8.15901C10.919 7.73705 10.3467 7.5 9.75 7.5C9.15326 7.5 8.58097 7.73705 8.15901 8.15901C7.73705 8.58097 7.5 9.15326 7.5 9.75C7.5 10.3467 7.73705 10.919 8.15901 11.341C8.58097 11.7629 9.15326 12 9.75 12Z" fill="#5D5D5D"/>
</svg>
