<svg width="24" height="24" viewBox="0 0 24 24" fill="none" xmlns="http://www.w3.org/2000/svg">
<path d="M12.5805 1.03912L9.9593 4.99922L11.3523 5.1742C10.9201 6.58655 10.8322 7.55911 10.9358 9.49233C11.5985 9.3878 12.1339 9.35053 12.8383 9.55748C12.3753 7.83061 12.4237 7.24059 12.6095 5.34961L14.1387 5.45634L12.5805 1.03912ZM22.8218 1.14272L17.7424 2.55037L18.7228 3.76795C16.4019 5.22197 14.9573 6.37176 13.8131 9.54126C14.4319 9.53414 15.1302 9.67819 15.8838 9.96333C16.1523 7.86961 17.4653 6.39426 19.6011 4.8578L20.5378 6.02105L22.8218 1.14272ZM1.09177 1.251L4.17984 6.05498L5.07441 4.70915C6.741 6.22978 7.79995 8.28712 7.76072 9.74494C8.63109 9.33731 9.16355 9.29836 10.092 9.56784C9.71213 8.1052 8.04938 4.4715 5.79647 3.51614L6.57319 2.29565L1.09181 1.25095L1.09177 1.251ZM14.0348 11.3135C13.7873 11.3191 13.5562 11.4267 13.2408 11.7632L12.9331 12.0899L12.6138 11.7749C12.2675 11.4337 11.9943 11.3394 11.7173 11.3516C11.4404 11.3638 11.1147 11.5095 10.7505 11.8042L10.4591 12.04L10.1822 11.7881C9.76505 11.4107 9.4095 11.2988 9.06895 11.3164C8.82108 11.3292 8.56388 11.4226 8.30723 11.5859L10.2275 15.0401C10.9519 15.4831 12.4322 15.6498 13.4502 15.1368L15.3061 11.6988C14.9541 11.5552 14.6377 11.4081 14.3642 11.3516C14.2652 11.3311 14.1735 11.3162 14.0845 11.3135C14.0679 11.3131 14.0513 11.3131 14.0348 11.3135ZM9.81741 15.8223V15.8224C8.97202 16.4197 8.29322 17.4498 8.0303 18.9585C7.77553 20.4209 8.17697 21.4085 8.88731 22.0816C9.59766 22.7547 10.664 23.1005 11.7467 23.0864C12.8295 23.0723 13.9093 22.6969 14.6354 22.0113C15.3615 21.3256 15.772 20.3507 15.5392 18.9556C15.2984 17.5139 14.6767 16.5112 13.8896 15.9044C12.5545 16.6101 10.8852 16.4601 9.81736 15.8223H9.81741Z" fill="#6AABFD"/>
</svg>
