<svg width="24" height="24" viewBox="0 0 24 24" fill="none" xmlns="http://www.w3.org/2000/svg">
<path fill-rule="evenodd" clip-rule="evenodd" d="M12.707 15.707C12.5194 15.8945 12.2651 15.9998 12 15.9998C11.7348 15.9998 11.4805 15.8945 11.293 15.707L5.63598 10.05C5.54047 9.95775 5.46428 9.84741 5.41188 9.7254C5.35947 9.6034 5.33188 9.47218 5.33073 9.3394C5.32957 9.20662 5.35487 9.07494 5.40516 8.95205C5.45544 8.82915 5.52969 8.7175 5.62358 8.6236C5.71747 8.52971 5.82913 8.45546 5.95202 8.40518C6.07492 8.3549 6.2066 8.3296 6.33938 8.33075C6.47216 8.3319 6.60338 8.35949 6.72538 8.4119C6.84739 8.46431 6.95773 8.54049 7.04998 8.636L12 13.586L16.95 8.636C17.1386 8.45384 17.3912 8.35305 17.6534 8.35533C17.9156 8.3576 18.1664 8.46277 18.3518 8.64818C18.5372 8.83359 18.6424 9.0844 18.6447 9.3466C18.6469 9.6088 18.5461 9.8614 18.364 10.05L12.707 15.707Z" fill="black"/>
</svg>
